<svg width="35" height="35" viewBox="0 0 35 35" fill="none" xmlns="http://www.w3.org/2000/svg">
<g id="Frame 2">
<g id="Group 2">
<path id="Vector" d="M17.0259 34.0105C14.4996 34.0105 11.9732 34.0176 9.4487 34.0087C6.79455 33.9999 4.50612 33.0727 2.65443 31.1688C1.02821 29.4957 0.119234 27.4638 0.0535465 25.1247C-0.0139168 22.7767 0.0215902 20.4252 0.0198149 18.0754C0.0162642 15.1644 -0.0298949 12.2534 0.0322423 9.34593C0.113908 5.56108 1.85908 2.74953 5.21804 0.982321C6.55133 0.280765 7.99824 0.00191818 9.50018 0.00191818C14.5226 0.00191818 19.5451 -0.00341009 24.5676 0.00369427C27.1436 0.00724645 29.3788 0.902396 31.2216 2.70335C32.6081 4.05673 33.4781 5.7085 33.8278 7.61602C33.9396 8.22167 34 8.8433 34.0018 9.4596C34.0142 14.5286 34.0089 19.5975 34.0071 24.6665C34.0053 28.8705 31.2251 32.5364 27.1773 33.6713C26.279 33.9235 25.3576 34.0123 24.4255 34.0105C21.9578 34.007 19.4918 34.0105 17.0241 34.0105H17.0259ZM17.001 31.0551C19.1066 31.0551 21.2139 31.0586 23.3195 31.0533C23.687 31.0533 24.0616 31.0533 24.4202 30.9912C27.3922 30.4814 29.4338 28.8012 30.5611 26.0163C31.0156 24.8956 31.1062 23.7056 31.108 22.5085C31.1115 18.8107 31.108 15.1129 31.108 11.4133C31.108 11.3245 31.1186 11.2357 31.1133 11.1487C31.0707 10.488 31.1115 9.80949 30.9677 9.17188C30.2931 6.18094 28.4627 4.21481 25.5547 3.25394C24.6972 2.97154 23.8042 2.95911 22.9112 2.95911C18.8456 2.95911 14.7818 2.95023 10.7163 2.95201C10.2902 2.95201 9.8588 2.97154 9.44159 3.04259C5.53405 3.71572 2.90121 7.13648 2.94737 10.8467C2.99708 14.8607 2.974 18.8764 2.95624 22.8904C2.95092 24.0005 3.05744 25.0768 3.4782 26.1122C4.44399 28.4886 6.16963 30.0321 8.60718 30.7905C9.35993 31.0249 10.1429 31.0533 10.924 31.0551C12.9497 31.0586 14.9736 31.0551 16.9993 31.0551H17.001Z" fill="white"/>
<path id="Vector_2" d="M25.638 16.9707C25.6114 20.4412 23.394 23.8282 20.035 25.1301C18.9716 25.5421 17.8709 25.7979 16.74 25.7375C13.7503 25.5759 11.3926 24.2456 9.754 21.7236C6.77674 17.143 8.65683 10.8752 13.919 8.83624C16.9743 7.65336 19.8398 8.15066 22.4016 10.1861C24.1237 11.5554 25.1463 13.3653 25.4889 15.5445C25.5635 16.0152 25.5901 16.493 25.638 16.969V16.9707ZM16.985 11.2517C14.2155 11.0723 11.1317 13.4061 11.1388 16.9885C11.1459 20.4039 13.8941 22.8212 16.9601 22.807C19.9747 22.791 22.7069 20.3062 22.7371 17.0826C22.7691 13.6761 19.909 11.0954 16.9832 11.2535L16.985 11.2517Z" fill="white"/>
<path id="Vector_3" d="M26.1672 9.87699C25.0931 9.88054 24.1628 8.92678 24.1628 7.82205C24.1628 6.74041 25.1446 5.71738 26.224 5.75646C27.5573 5.80441 28.1396 6.59122 28.1964 7.76877C28.2515 8.94454 27.3159 9.87343 26.169 9.87699H26.1672Z" fill="white"/>
</g>
</g>
</svg>
